<svg width="81" height="30" viewBox="0 0 81 30" fill="none" xmlns="http://www.w3.org/2000/svg">
<g clip-path="url(#clip0_772_146)">
<path d="M26.8509 26.5783C44.5104 33.4885 66.0701 29.7385 80.1187 17.0586L78.2159 15.3895L80.0798 13.6814C74.2656 9.0523 67.9674 5.48591 61.046 3.49407C44.2934 -1.71365 25.6769 2.27559 12.0456 11.6172L0.756677 0L8.72404 14.5326L0 29.783L11.6228 18.1714C16.4688 21.4484 21.3817 24.6532 26.8509 26.5783ZM3.25482 25.6491C5.04637 21.9492 7.47218 18.4551 9.55304 14.822C7.68361 11.0441 5.32456 7.41098 3.59421 3.69436L13.4421 14.3212L13.7648 14.6829L14.0764 14.4659C22.8762 8.24632 33.3466 4.82406 44.1209 4.64577V27.4573H48.1157L48.1602 4.73479C59.5011 5.29264 70.3287 9.63113 78.9169 17.0586C64.6458 29.9944 41.4614 32.8264 24.0857 24.6532C19.6346 22.8672 15.74 19.9462 11.7007 17.1699L3.25482 25.6491Z" fill="#002E6D"/>
<path d="M12.8969 22.2218C12.7303 22.0491 12.5307 21.9118 12.3099 21.818C12.089 21.7242 11.8516 21.6759 11.6117 21.6759C11.3718 21.6759 11.1343 21.7242 10.9135 21.818C10.6927 21.9118 10.493 22.0491 10.3265 22.2218C9.98503 22.5781 9.79443 23.0525 9.79443 23.546C9.79443 24.0394 9.98503 24.5138 10.3265 24.8701C10.4919 25.0458 10.6915 25.1857 10.913 25.2814C11.1345 25.3771 11.3732 25.4264 11.6145 25.4264C11.8557 25.4264 12.0945 25.3771 12.316 25.2814C12.5375 25.1857 12.7371 25.0458 12.9025 24.8701C13.2414 24.5125 13.4303 24.0386 13.4303 23.546C13.4303 23.0533 13.2414 22.5794 12.9025 22.2218H12.8969ZM12.7133 24.6977C12.5725 24.8515 12.4003 24.9733 12.2083 25.0549C12.0163 25.1365 11.8091 25.176 11.6006 25.1706C11.3922 25.1745 11.1854 25.1344 10.9937 25.0529C10.8019 24.9714 10.6295 24.8504 10.4878 24.6977C10.1906 24.3884 10.0268 23.9748 10.0316 23.546C10.0311 23.3392 10.0717 23.1343 10.151 22.9433C10.2302 22.7523 10.3466 22.5789 10.4934 22.4332C10.6342 22.2779 10.8059 22.1538 10.9976 22.0689C11.1892 21.984 11.3965 21.9402 11.6061 21.9402C11.8157 21.9402 12.023 21.984 12.2147 22.0689C12.4063 22.1538 12.5781 22.2779 12.7189 22.4332C12.8656 22.5789 12.982 22.7523 13.0613 22.9433C13.1405 23.1343 13.1811 23.3392 13.1807 23.546C13.1825 23.7592 13.1421 23.9708 13.0619 24.1684C12.9817 24.3661 12.8632 24.5459 12.7133 24.6977Z" fill="#002E6D"/>
<path d="M11.2277 24.564V23.7573H11.5059C11.6392 23.7471 11.773 23.7701 11.8953 23.824C11.9645 23.8802 12.0183 23.9532 12.0514 24.0359C12.0845 24.1187 12.0959 24.2086 12.0845 24.297V24.5473H12.4128C12.4072 24.5123 12.4072 24.4766 12.4128 24.4416V24.1412C12.4088 24.024 12.3679 23.911 12.2959 23.8185C12.2579 23.7614 12.2078 23.7133 12.1492 23.6777C12.0905 23.6422 12.0247 23.6199 11.9565 23.6126C12.0595 23.6025 12.1586 23.5682 12.2458 23.5125C12.3106 23.4687 12.3627 23.4086 12.3969 23.3383C12.4311 23.268 12.4462 23.1899 12.4406 23.1119C12.4506 23.003 12.4258 22.8937 12.3698 22.7997C12.3139 22.7057 12.2295 22.6319 12.129 22.5889C11.9494 22.5317 11.7609 22.5072 11.5726 22.5166H10.8716V24.5696L11.2277 24.564ZM11.2277 23.5013V22.7558H11.5337C11.6788 22.7481 11.8237 22.7748 11.9565 22.8337C12.0033 22.8744 12.0394 22.926 12.0615 22.984C12.0837 23.0419 12.0913 23.1044 12.0836 23.166C12.0759 23.2276 12.0532 23.2863 12.0174 23.337C11.9817 23.3877 11.934 23.4289 11.8786 23.4568C11.7714 23.4936 11.6579 23.5087 11.5448 23.5013H11.2277Z" fill="#002E6D"/>
<path d="M21.7933 21.5043L22.6557 19.7405H27.1068L27.8523 24.3251L31.2518 25.5102L28.6758 9.37517C28.6758 9.37517 26.9565 9.88704 25.6324 10.3878C24.3082 10.8885 23.1787 11.3781 23.1787 11.3781L19.0337 19.8629C19.9462 20.436 20.8586 20.9868 21.7933 21.5043ZM23.9799 17.0532C23.9799 17.0532 25.3709 14.2324 25.4988 13.9597C25.7881 13.2977 26.083 13.1919 26.1442 13.7316C26.1943 14.11 26.7006 17.0699 26.7006 17.0699L23.9799 17.0532Z" fill="#002E6D"/>
<path d="M59.1432 25.8048C60.5119 25.3986 60.9849 24.4027 60.9849 23.0229V19.9183H57.8636V22.1938C57.8636 22.8671 57.0568 22.9004 57.0568 22.9004C57.0568 22.9004 56.3113 23.0674 55.3265 23.2677C54.3417 23.468 54.453 22.9171 54.453 22.3107V11.6838C54.453 10.4709 55.5991 10.8548 56.417 11.044C57.7968 11.3611 57.986 11.6004 57.986 12.3904C57.986 12.7131 57.986 13.2027 57.986 13.2027V13.9427H60.9737V12.1623C60.9737 11.2832 61.3799 9.06885 58.1918 8.22871C56.0498 7.67233 54.9314 7.43309 54.6588 7.38302C53.8688 7.23279 52.3665 6.92678 51.5598 7.99503C50.8142 8.97426 50.9478 10.3708 50.9478 11.7562V23.8129C50.9478 25.2484 51.0312 25.9383 51.6766 26.4613C52.5112 27.1401 53.3458 27.1512 55.2041 26.7673C56.3391 26.5336 58.2975 26.044 59.1432 25.8048Z" fill="#002E6D"/>
<path d="M62.804 13.1084L62.7539 21.9381C62.7539 24.72 64.9794 23.6851 65.6471 23.3958C66.3147 23.1065 67.7279 22.4388 69.2079 21.6877C71.2999 20.625 71.4334 19.6236 71.4334 18.5275V15.6232C71.3834 14.3936 71.2832 13.7315 69.7087 12.8691C69.2691 12.6243 66.6096 11.2667 66.6096 11.2667C63.0655 9.5809 62.804 10.7437 62.804 13.1084ZM66.9379 14.6773C66.9379 14.6773 67.9282 15.3005 68.0506 15.4062C68.2244 15.5324 68.3631 15.7008 68.4536 15.8955C68.5441 16.0902 68.5835 16.3048 68.5681 16.519V18.0546C68.5681 18.3383 68.5681 18.5609 68.0451 18.9336C67.5307 19.2849 66.9976 19.6081 66.4483 19.9017C66.2202 20.0297 65.5803 20.4136 65.5803 19.2174V15.4451C65.6526 14.7274 65.4635 13.8038 66.9379 14.6773Z" fill="#002E6D"/>
<path d="M34.963 26.4892C35.5639 26.595 36.1592 26.6728 36.7156 26.7229V18.5664H40.8272V15.3728H36.7211V10.766C38.5959 10.4463 40.4867 10.229 42.3851 10.115V6.67656C40.4868 6.79487 38.5962 7.01403 36.7211 7.33309C35.4971 7.53895 34.2842 7.78932 33.0713 8.0842V26.0831C33.6611 26.2444 34.2953 26.378 34.963 26.4892Z" fill="#002E6D"/>
</g>
<defs>
<clipPath id="clip0_772_146">
<rect width="80.1187" height="30" fill="white"/>
</clipPath>
</defs>
</svg>
